<svg xmlns="http://www.w3.org/2000/svg" xmlns:xlink="http://www.w3.org/1999/xlink" width="500" zoomAndPan="magnify" viewBox="0 0 375 374.999991" height="500" preserveAspectRatio="xMidYMid meet" version="1.0"><defs><clipPath id="86e64c0387"><path d="M 17 17 L 358 17 L 358 358 L 17 358 Z M 17 17 " clip-rule="nonzero"/></clipPath><clipPath id="d9092ea195"><path d="M 225.742188 17.988281 C 278.828125 17.988281 305.375 17.988281 324.351562 30.882812 C 332.125 36.167969 338.832031 42.875 344.117188 50.648438 C 357.011719 69.628906 357.011719 96.171875 357.011719 149.257812 L 357.011719 225.742188 C 357.011719 278.828125 357.011719 305.375 344.117188 324.351562 C 338.832031 332.125 332.125 338.832031 324.351562 344.117188 C 305.371094 357.011719 278.828125 357.011719 225.742188 357.011719 L 149.257812 357.011719 C 96.171875 357.011719 69.625 357.011719 50.648438 344.117188 C 42.875 338.832031 36.167969 332.125 30.882812 324.351562 C 17.988281 305.371094 17.988281 278.828125 17.988281 225.742188 L 17.988281 149.257812 C 17.988281 96.171875 17.988281 69.625 30.882812 50.648438 C 36.167969 42.875 42.875 36.167969 50.648438 30.882812 C 69.628906 17.988281 96.171875 17.988281 149.257812 17.988281 Z M 225.742188 17.988281 " clip-rule="nonzero"/></clipPath><clipPath id="e085a6dd1e"><path d="M 0.988281 0.988281 L 340.011719 0.988281 L 340.011719 340.011719 L 0.988281 340.011719 Z M 0.988281 0.988281 " clip-rule="nonzero"/></clipPath><clipPath id="c5bdc21a30"><path d="M 208.742188 0.988281 C 261.828125 0.988281 288.375 0.988281 307.351562 13.882812 C 315.125 19.167969 321.832031 25.875 327.117188 33.648438 C 340.011719 52.628906 340.011719 79.171875 340.011719 132.257812 L 340.011719 208.742188 C 340.011719 261.828125 340.011719 288.375 327.117188 307.351562 C 321.832031 315.125 315.125 321.832031 307.351562 327.117188 C 288.371094 340.011719 261.828125 340.011719 208.742188 340.011719 L 132.257812 340.011719 C 79.171875 340.011719 52.625 340.011719 33.648438 327.117188 C 25.875 321.832031 19.167969 315.125 13.882812 307.351562 C 0.988281 288.371094 0.988281 261.828125 0.988281 208.742188 L 0.988281 132.257812 C 0.988281 79.171875 0.988281 52.625 13.882812 33.648438 C 19.167969 25.875 25.875 19.167969 33.648438 13.882812 C 52.628906 0.988281 79.171875 0.988281 132.257812 0.988281 Z M 208.742188 0.988281 " clip-rule="nonzero"/></clipPath><linearGradient x1="128" gradientTransform="matrix(1.324324, 0, 0, 1.324324, 0.986567, 0.986563)" y1="0" x2="128" gradientUnits="userSpaceOnUse" y2="256" id="02bbd64ad0"><stop stop-opacity="1" stop-color="rgb(12.548828%, 73.329163%, 94.509888%)" offset="0"/><stop stop-opacity="1" stop-color="rgb(12.54425%, 73.200989%, 94.493103%)" offset="0.0078125"/><stop stop-opacity="1" stop-color="rgb(12.535095%, 72.947693%, 94.458008%)" offset="0.015625"/><stop stop-opacity="1" stop-color="rgb(12.52594%, 72.692871%, 94.424438%)" offset="0.0234375"/><stop stop-opacity="1" stop-color="rgb(12.516785%, 72.438049%, 94.390869%)" offset="0.03125"/><stop stop-opacity="1" stop-color="rgb(12.507629%, 72.184753%, 94.3573%)" offset="0.0390625"/><stop stop-opacity="1" stop-color="rgb(12.498474%, 71.929932%, 94.32373%)" offset="0.046875"/><stop stop-opacity="1" stop-color="rgb(12.489319%, 71.67511%, 94.290161%)" offset="0.0546875"/><stop stop-opacity="1" stop-color="rgb(12.480164%, 71.421814%, 94.256592%)" offset="0.0625"/><stop stop-opacity="1" stop-color="rgb(12.471008%, 71.166992%, 94.223022%)" offset="0.0703125"/><stop stop-opacity="1" stop-color="rgb(12.461853%, 70.91217%, 94.189453%)" offset="0.078125"/><stop stop-opacity="1" stop-color="rgb(12.452698%, 70.658875%, 94.155884%)" offset="0.0859375"/><stop stop-opacity="1" stop-color="rgb(12.443542%, 70.404053%, 94.122314%)" offset="0.09375"/><stop stop-opacity="1" stop-color="rgb(12.434387%, 70.150757%, 94.088745%)" offset="0.101562"/><stop stop-opacity="1" stop-color="rgb(12.425232%, 69.895935%, 94.055176%)" offset="0.109375"/><stop stop-opacity="1" stop-color="rgb(12.416077%, 69.641113%, 94.021606%)" offset="0.117188"/><stop stop-opacity="1" stop-color="rgb(12.406921%, 69.387817%, 93.986511%)" offset="0.125"/><stop stop-opacity="1" stop-color="rgb(12.397766%, 69.132996%, 93.952942%)" offset="0.132812"/><stop stop-opacity="1" stop-color="rgb(12.388611%, 68.878174%, 93.919373%)" offset="0.140625"/><stop stop-opacity="1" stop-color="rgb(12.37793%, 68.624878%, 93.885803%)" offset="0.148438"/><stop stop-opacity="1" stop-color="rgb(12.368774%, 68.370056%, 93.852234%)" offset="0.15625"/><stop stop-opacity="1" stop-color="rgb(12.359619%, 68.115234%, 93.818665%)" offset="0.164062"/><stop stop-opacity="1" stop-color="rgb(12.350464%, 67.861938%, 93.785095%)" offset="0.171875"/><stop stop-opacity="1" stop-color="rgb(12.341309%, 67.607117%, 93.751526%)" offset="0.179688"/><stop stop-opacity="1" stop-color="rgb(12.332153%, 67.352295%, 93.717957%)" offset="0.1875"/><stop stop-opacity="1" stop-color="rgb(12.322998%, 67.098999%, 93.684387%)" offset="0.195312"/><stop stop-opacity="1" stop-color="rgb(12.313843%, 66.844177%, 93.650818%)" offset="0.203125"/><stop stop-opacity="1" stop-color="rgb(12.304688%, 66.589355%, 93.617249%)" offset="0.210938"/><stop stop-opacity="1" stop-color="rgb(12.295532%, 66.33606%, 93.583679%)" offset="0.21875"/><stop stop-opacity="1" stop-color="rgb(12.286377%, 66.081238%, 93.55011%)" offset="0.226562"/><stop stop-opacity="1" stop-color="rgb(12.277222%, 65.826416%, 93.516541%)" offset="0.234375"/><stop stop-opacity="1" stop-color="rgb(12.268066%, 65.57312%, 93.481445%)" offset="0.242188"/><stop stop-opacity="1" stop-color="rgb(12.258911%, 65.318298%, 93.447876%)" offset="0.25"/><stop stop-opacity="1" stop-color="rgb(12.249756%, 65.063477%, 93.414307%)" offset="0.257812"/><stop stop-opacity="1" stop-color="rgb(12.240601%, 64.810181%, 93.380737%)" offset="0.265625"/><stop stop-opacity="1" stop-color="rgb(12.231445%, 64.555359%, 93.347168%)" offset="0.273438"/><stop stop-opacity="1" stop-color="rgb(12.22229%, 64.300537%, 93.313599%)" offset="0.28125"/><stop stop-opacity="1" stop-color="rgb(12.213135%, 64.047241%, 93.280029%)" offset="0.289063"/><stop stop-opacity="1" stop-color="rgb(12.203979%, 63.792419%, 93.24646%)" offset="0.296875"/><stop stop-opacity="1" stop-color="rgb(12.194824%, 63.537598%, 93.212891%)" offset="0.304688"/><stop stop-opacity="1" stop-color="rgb(12.185669%, 63.284302%, 93.179321%)" offset="0.3125"/><stop stop-opacity="1" stop-color="rgb(12.176514%, 63.02948%, 93.145752%)" offset="0.320312"/><stop stop-opacity="1" stop-color="rgb(12.167358%, 62.774658%, 93.112183%)" offset="0.328125"/><stop stop-opacity="1" stop-color="rgb(12.156677%, 62.521362%, 93.078613%)" offset="0.335938"/><stop stop-opacity="1" stop-color="rgb(12.147522%, 62.266541%, 93.045044%)" offset="0.34375"/><stop stop-opacity="1" stop-color="rgb(12.138367%, 62.013245%, 93.011475%)" offset="0.351563"/><stop stop-opacity="1" stop-color="rgb(12.129211%, 61.758423%, 92.976379%)" offset="0.359375"/><stop stop-opacity="1" stop-color="rgb(12.120056%, 61.503601%, 92.94281%)" offset="0.367188"/><stop stop-opacity="1" stop-color="rgb(12.110901%, 61.250305%, 92.909241%)" offset="0.375"/><stop stop-opacity="1" stop-color="rgb(12.101746%, 60.995483%, 92.875671%)" offset="0.382812"/><stop stop-opacity="1" stop-color="rgb(12.09259%, 60.740662%, 92.842102%)" offset="0.390625"/><stop stop-opacity="1" stop-color="rgb(12.083435%, 60.487366%, 92.808533%)" offset="0.398438"/><stop stop-opacity="1" stop-color="rgb(12.07428%, 60.232544%, 92.774963%)" offset="0.40625"/><stop stop-opacity="1" stop-color="rgb(12.065125%, 59.977722%, 92.741394%)" offset="0.414062"/><stop stop-opacity="1" stop-color="rgb(12.055969%, 59.724426%, 92.707825%)" offset="0.421875"/><stop stop-opacity="1" stop-color="rgb(12.046814%, 59.469604%, 92.674255%)" offset="0.429688"/><stop stop-opacity="1" stop-color="rgb(12.037659%, 59.214783%, 92.640686%)" offset="0.4375"/><stop stop-opacity="1" stop-color="rgb(12.028503%, 58.961487%, 92.607117%)" offset="0.445312"/><stop stop-opacity="1" stop-color="rgb(12.019348%, 58.706665%, 92.573547%)" offset="0.453125"/><stop stop-opacity="1" stop-color="rgb(12.010193%, 58.451843%, 92.539978%)" offset="0.460938"/><stop stop-opacity="1" stop-color="rgb(12.001038%, 58.198547%, 92.506409%)" offset="0.46875"/><stop stop-opacity="1" stop-color="rgb(11.991882%, 57.943726%, 92.471313%)" offset="0.476562"/><stop stop-opacity="1" stop-color="rgb(11.982727%, 57.688904%, 92.437744%)" offset="0.484375"/><stop stop-opacity="1" stop-color="rgb(11.973572%, 57.435608%, 92.404175%)" offset="0.492188"/><stop stop-opacity="1" stop-color="rgb(11.964417%, 57.180786%, 92.370605%)" offset="0.5"/><stop stop-opacity="1" stop-color="rgb(11.955261%, 56.925964%, 92.337036%)" offset="0.507812"/><stop stop-opacity="1" stop-color="rgb(11.946106%, 56.672668%, 92.303467%)" offset="0.515625"/><stop stop-opacity="1" stop-color="rgb(11.935425%, 56.417847%, 92.269897%)" offset="0.523438"/><stop stop-opacity="1" stop-color="rgb(11.92627%, 56.163025%, 92.236328%)" offset="0.53125"/><stop stop-opacity="1" stop-color="rgb(11.917114%, 55.909729%, 92.202759%)" offset="0.539062"/><stop stop-opacity="1" stop-color="rgb(11.907959%, 55.654907%, 92.169189%)" offset="0.546875"/><stop stop-opacity="1" stop-color="rgb(11.898804%, 55.400085%, 92.13562%)" offset="0.554688"/><stop stop-opacity="1" stop-color="rgb(11.889648%, 55.14679%, 92.102051%)" offset="0.5625"/><stop stop-opacity="1" stop-color="rgb(11.880493%, 54.891968%, 92.068481%)" offset="0.570313"/><stop stop-opacity="1" stop-color="rgb(11.871338%, 54.638672%, 92.034912%)" offset="0.578125"/><stop stop-opacity="1" stop-color="rgb(11.862183%, 54.38385%, 92.001343%)" offset="0.585938"/><stop stop-opacity="1" stop-color="rgb(11.853027%, 54.129028%, 91.966248%)" offset="0.59375"/><stop stop-opacity="1" stop-color="rgb(11.843872%, 53.875732%, 91.932678%)" offset="0.601563"/><stop stop-opacity="1" stop-color="rgb(11.834717%, 53.620911%, 91.899109%)" offset="0.609375"/><stop stop-opacity="1" stop-color="rgb(11.825562%, 53.366089%, 91.86554%)" offset="0.617188"/><stop stop-opacity="1" stop-color="rgb(11.816406%, 53.112793%, 91.83197%)" offset="0.625"/><stop stop-opacity="1" stop-color="rgb(11.807251%, 52.857971%, 91.798401%)" offset="0.632812"/><stop stop-opacity="1" stop-color="rgb(11.798096%, 52.603149%, 91.764832%)" offset="0.640625"/><stop stop-opacity="1" stop-color="rgb(11.78894%, 52.349854%, 91.731262%)" offset="0.648438"/><stop stop-opacity="1" stop-color="rgb(11.779785%, 52.095032%, 91.697693%)" offset="0.65625"/><stop stop-opacity="1" stop-color="rgb(11.77063%, 51.84021%, 91.664124%)" offset="0.664062"/><stop stop-opacity="1" stop-color="rgb(11.761475%, 51.586914%, 91.630554%)" offset="0.671875"/><stop stop-opacity="1" stop-color="rgb(11.752319%, 51.332092%, 91.596985%)" offset="0.679688"/><stop stop-opacity="1" stop-color="rgb(11.743164%, 51.077271%, 91.563416%)" offset="0.6875"/><stop stop-opacity="1" stop-color="rgb(11.734009%, 50.823975%, 91.529846%)" offset="0.695312"/><stop stop-opacity="1" stop-color="rgb(11.724854%, 50.569153%, 91.496277%)" offset="0.703125"/><stop stop-opacity="1" stop-color="rgb(11.714172%, 50.314331%, 91.461182%)" offset="0.710938"/><stop stop-opacity="1" stop-color="rgb(11.705017%, 50.061035%, 91.427612%)" offset="0.71875"/><stop stop-opacity="1" stop-color="rgb(11.695862%, 49.806213%, 91.394043%)" offset="0.726563"/><stop stop-opacity="1" stop-color="rgb(11.686707%, 49.551392%, 91.360474%)" offset="0.734375"/><stop stop-opacity="1" stop-color="rgb(11.677551%, 49.298096%, 91.326904%)" offset="0.742188"/><stop stop-opacity="1" stop-color="rgb(11.668396%, 49.043274%, 91.293335%)" offset="0.75"/><stop stop-opacity="1" stop-color="rgb(11.659241%, 48.788452%, 91.259766%)" offset="0.757812"/><stop stop-opacity="1" stop-color="rgb(11.650085%, 48.535156%, 91.226196%)" offset="0.765625"/><stop stop-opacity="1" stop-color="rgb(11.64093%, 48.280334%, 91.192627%)" offset="0.773438"/><stop stop-opacity="1" stop-color="rgb(11.631775%, 48.025513%, 91.159058%)" offset="0.78125"/><stop stop-opacity="1" stop-color="rgb(11.62262%, 47.772217%, 91.125488%)" offset="0.789062"/><stop stop-opacity="1" stop-color="rgb(11.613464%, 47.517395%, 91.091919%)" offset="0.796875"/><stop stop-opacity="1" stop-color="rgb(11.604309%, 47.262573%, 91.05835%)" offset="0.804688"/><stop stop-opacity="1" stop-color="rgb(11.595154%, 47.009277%, 91.02478%)" offset="0.8125"/><stop stop-opacity="1" stop-color="rgb(11.585999%, 46.754456%, 90.991211%)" offset="0.820312"/><stop stop-opacity="1" stop-color="rgb(11.576843%, 46.50116%, 90.956116%)" offset="0.828125"/><stop stop-opacity="1" stop-color="rgb(11.567688%, 46.246338%, 90.922546%)" offset="0.835938"/><stop stop-opacity="1" stop-color="rgb(11.558533%, 45.991516%, 90.888977%)" offset="0.84375"/><stop stop-opacity="1" stop-color="rgb(11.549377%, 45.73822%, 90.855408%)" offset="0.851563"/><stop stop-opacity="1" stop-color="rgb(11.540222%, 45.483398%, 90.821838%)" offset="0.859375"/><stop stop-opacity="1" stop-color="rgb(11.531067%, 45.228577%, 90.788269%)" offset="0.867188"/><stop stop-opacity="1" stop-color="rgb(11.521912%, 44.975281%, 90.7547%)" offset="0.875"/><stop stop-opacity="1" stop-color="rgb(11.512756%, 44.720459%, 90.72113%)" offset="0.882812"/><stop stop-opacity="1" stop-color="rgb(11.503601%, 44.465637%, 90.687561%)" offset="0.890625"/><stop stop-opacity="1" stop-color="rgb(11.49292%, 44.212341%, 90.653992%)" offset="0.898437"/><stop stop-opacity="1" stop-color="rgb(11.483765%, 43.95752%, 90.620422%)" offset="0.90625"/><stop stop-opacity="1" stop-color="rgb(11.474609%, 43.702698%, 90.586853%)" offset="0.914062"/><stop stop-opacity="1" stop-color="rgb(11.465454%, 43.449402%, 90.553284%)" offset="0.921875"/><stop stop-opacity="1" stop-color="rgb(11.456299%, 43.19458%, 90.519714%)" offset="0.929688"/><stop stop-opacity="1" stop-color="rgb(11.447144%, 42.939758%, 90.486145%)" offset="0.9375"/><stop stop-opacity="1" stop-color="rgb(11.437988%, 42.686462%, 90.45105%)" offset="0.945312"/><stop stop-opacity="1" stop-color="rgb(11.428833%, 42.431641%, 90.41748%)" offset="0.953125"/><stop stop-opacity="1" stop-color="rgb(11.419678%, 42.176819%, 90.383911%)" offset="0.960938"/><stop stop-opacity="1" stop-color="rgb(11.410522%, 41.923523%, 90.350342%)" offset="0.96875"/><stop stop-opacity="1" stop-color="rgb(11.401367%, 41.668701%, 90.316772%)" offset="0.976563"/><stop stop-opacity="1" stop-color="rgb(11.392212%, 41.413879%, 90.283203%)" offset="0.984375"/><stop stop-opacity="1" stop-color="rgb(11.383057%, 41.160583%, 90.249634%)" offset="0.992188"/><stop stop-opacity="1" stop-color="rgb(11.373901%, 40.905762%, 90.216064%)" offset="1"/></linearGradient><clipPath id="8f1a927e5f"><rect x="0" width="341" y="0" height="341"/></clipPath><clipPath id="2c2460d39b"><path d="M 34.933594 34.933594 L 340.183594 34.933594 L 340.183594 340.183594 L 34.933594 340.183594 Z M 34.933594 34.933594 " clip-rule="nonzero"/></clipPath><clipPath id="fbe489d74e"><path d="M 221.917969 34.933594 C 269.695312 34.933594 293.585938 34.933594 310.667969 46.539062 C 317.730469 51.339844 323.660156 57.269531 328.457031 64.328125 C 340.066406 81.410156 340.066406 105.300781 340.066406 153.078125 L 340.066406 221.917969 C 340.066406 269.695312 340.066406 293.585938 328.457031 310.667969 C 323.65625 317.726562 317.726562 323.660156 310.667969 328.457031 C 293.585938 340.066406 269.695312 340.066406 221.917969 340.066406 L 153.078125 340.066406 C 105.300781 340.066406 81.410156 340.066406 64.328125 328.457031 C 57.269531 323.65625 51.339844 317.726562 46.539062 310.667969 C 34.933594 293.585938 34.933594 269.695312 34.933594 221.917969 L 34.933594 153.078125 C 34.933594 105.300781 34.933594 81.410156 46.539062 64.328125 C 51.339844 57.269531 57.269531 51.339844 64.328125 46.539062 C 81.410156 34.933594 105.300781 34.933594 153.078125 34.933594 Z M 221.917969 34.933594 " clip-rule="nonzero"/></clipPath><clipPath id="1b91fae0f0"><path d="M 64.960938 58.171875 L 310.210938 58.171875 L 310.210938 303.421875 L 64.960938 303.421875 Z M 64.960938 58.171875 " clip-rule="nonzero"/></clipPath></defs><g clip-path="url(#86e64c0387)"><g clip-path="url(#d9092ea195)"><g transform="matrix(1, 0, 0, 1, 17, 17)"><g clip-path="url(#8f1a927e5f)"><g clip-path="url(#e085a6dd1e)"><g clip-path="url(#c5bdc21a30)"><path fill="url(#02bbd64ad0)" d="M 0.988281 0.988281 L 0.988281 340.011719 L 340.011719 340.011719 L 340.011719 0.988281 Z M 0.988281 0.988281 " fill-rule="nonzero"/></g></g></g></g></g></g><path stroke-linecap="butt" transform="matrix(0.75, 0.000376162, -0.000376162, 0.75, 37.500189, 289.193477)" fill="none" stroke-linejoin="miter" d="M 0.000000325856 0.502447 L 397.588631 0.500954 " stroke="#33bafe" stroke-width="1" stroke-opacity="1" stroke-miterlimit="4"/><path stroke-linecap="butt" transform="matrix(0.75, 0.0000581195, -0.0000581195, 0.75, 37.500031, 220.718453)" fill="none" stroke-linejoin="miter" d="M -0.00000297964 0.500396 L 399.973982 0.500651 " stroke="#33bafe" stroke-width="1" stroke-opacity="1" stroke-miterlimit="4"/><path stroke-linecap="butt" transform="matrix(0.75, 0.000000000000090594, -0.000000000000090594, 0.75, 37.500002, 152.812711)" fill="none" stroke-linejoin="miter" d="M -0.00000271667 0.499719 L 400.000024 0.499719 " stroke="#33bafe" stroke-width="1" stroke-opacity="1" stroke-miterlimit="4"/><path stroke-linecap="butt" transform="matrix(0.75, 0.000000000000000081, -0.000000000000000081, 0.75, 37.500002, 84.906952)" fill="none" stroke-linejoin="miter" d="M -0.00000271667 0.499064 L 396.60419 0.499064 " stroke="#33bafe" stroke-width="1" stroke-opacity="1" stroke-miterlimit="4"/><path stroke-linecap="butt" transform="matrix(0.000376164, -0.75, 0.75, 0.000376164, 289.188998, 337.495408)" fill="none" stroke-linejoin="miter" d="M -0.000664242 0.498003 L 397.587969 0.501716 " stroke="#33bafe" stroke-width="1" stroke-opacity="1" stroke-miterlimit="4"/><path stroke-linecap="butt" transform="matrix(0.0000581208, -0.75, 0.75, 0.0000581208, 220.716141, 337.497722)" fill="none" stroke-linejoin="miter" d="M 0.0022094 0.49827 L 399.976194 0.498524 " stroke="#33bafe" stroke-width="1" stroke-opacity="1" stroke-miterlimit="4"/><path stroke-linecap="butt" transform="matrix(0.000000001309, -0.75, 0.75, 0.000000001309, 152.812626, 337.499978)" fill="none" stroke-linejoin="miter" d="M -0.0000295491 0.499831 L 399.999997 0.499831 " stroke="#33bafe" stroke-width="1" stroke-opacity="1" stroke-miterlimit="4"/><path stroke-linecap="butt" transform="matrix(0, -0.75, 0.75, 0, 84.902716, 337.495819)" fill="none" stroke-linejoin="miter" d="M -0.000366816 0.499504 L 396.603826 0.499504 " stroke="#33bafe" stroke-width="1" stroke-opacity="1" stroke-miterlimit="4"/><g clip-path="url(#2c2460d39b)"><g clip-path="url(#fbe489d74e)"><path stroke-linecap="butt" transform="matrix(0.75, 0, 0, 0.75, 34.931823, 34.931819)" fill="none" stroke-linejoin="miter" d="M 249.314877 0.00236646 C 313.018006 0.00236646 344.872175 0.00236646 367.648218 15.476326 C 377.064885 21.877368 384.971136 29.783618 391.366969 39.195077 C 406.846137 61.971121 406.846137 93.825289 406.846137 157.528418 L 406.846137 249.314883 C 406.846137 313.018012 406.846137 344.872181 391.366969 367.648224 C 384.965927 377.064891 377.059677 384.971142 367.648218 391.366975 C 344.872175 406.846143 313.018006 406.846143 249.314877 406.846143 L 157.528412 406.846143 C 93.825283 406.846143 61.971115 406.846143 39.195071 391.366975 C 29.783612 384.965933 21.877362 377.059683 15.47632 367.648224 C 0.00236046 344.872181 0.00236046 313.018012 0.00236046 249.314883 L 0.00236046 157.528418 C 0.00236046 93.825289 0.00236046 61.971121 15.47632 39.195077 C 21.877362 29.783618 29.783612 21.877368 39.195071 15.476326 C 61.971115 0.00236646 93.825283 0.00236646 157.528412 0.00236646 Z M 249.314877 0.00236646 " stroke="#ffffff" stroke-width="12" stroke-opacity="1" stroke-miterlimit="4"/></g></g><g clip-path="url(#1b91fae0f0)"><path stroke-linecap="butt" transform="matrix(0.306562, 0, 0, 0.306562, 64.959631, 58.173027)" fill="none" stroke-linejoin="miter" d="M 436.306532 93.752618 C 430.215807 99.499306 424.634767 109.540081 415.027223 132.004405 C 404.99919 155.44987 397.213767 175.544163 391.008364 193.994725 C 390.536906 195.370872 386.510402 207.080862 382.037925 220.001352 C 377.578189 232.921842 371.423755 251.155789 368.36565 260.495748 C 365.307546 269.84845 361.9946 279.749063 360.987974 282.501356 C 359.99409 285.25365 354.10724 303.028881 347.914579 322.001869 C 326.405913 387.853045 298.538938 471.250095 291.93853 489.496783 C 290.740773 492.796987 287.3896 502.251626 284.471659 510.495765 C 281.553718 518.752646 277.845767 529.099232 276.22752 533.495257 C 274.622015 537.904023 273.500711 542.096175 273.755553 542.809732 C 273.997652 543.536032 275.399284 544.606368 276.851883 545.192505 C 283.911007 548.021251 290.205605 550.404024 297.494086 553.016155 C 301.902853 554.583433 308.656166 557.055401 312.504281 558.508 C 316.352395 559.947858 323.551682 562.636441 328.495617 564.471304 C 333.452294 566.293424 340.422224 568.931039 344.002754 570.319928 C 404.884511 594.032977 433.974727 605.972326 448.997664 613.451939 C 452.578194 615.235833 457.190835 617.236343 459.255055 617.924416 C 463.383496 619.275079 464.772385 622.702704 460.745881 621.632367 C 459.509897 621.301073 451.074626 620.562031 442.002251 620.001379 C 432.929875 619.440726 423.997662 618.727168 422.1628 618.421358 C 419.19389 617.937158 398.93395 615.64358 373.997659 612.967739 C 369.321308 612.470797 362.351379 611.57885 358.503265 611.005455 C 354.65515 610.432061 347.901837 609.540114 343.505812 609.03043 C 339.097045 608.520746 332.343732 607.616057 328.495617 607.02992 C 324.647503 606.456525 318.123547 605.551836 313.995107 605.042152 C 309.879408 604.519726 300.424769 603.194548 292.996125 602.098727 C 285.580222 601.002906 272.761669 599.14256 264.51753 597.970286 L 249.545561 595.855098 L 240.027212 599.027881 C 234.790208 600.773549 229.145458 602.761316 227.501727 603.44939 C 224.647496 604.634405 220.417119 606.227168 208.006313 610.78884 C 204.973693 611.910145 196.602133 615.108412 189.402846 617.911674 C 182.203559 620.702194 176.010898 622.995772 175.641377 622.995772 C 175.271856 622.995772 173.067473 623.862235 170.735668 624.907087 C 168.403864 625.95194 161.58684 628.704233 155.58531 630.997811 C 149.583781 633.304132 143.964514 635.546741 143.08531 635.992715 C 142.218847 636.438688 136.994585 638.719524 131.50274 641.064071 C 116.377866 647.511574 90.243818 659.489149 83.490504 663.056937 C 64.058801 673.339812 58.860024 676.410658 50.501206 682.603319 C 35.84779 693.459589 30.636271 701.792923 36.255537 705.398938 C 41.365119 708.6864 71.729545 709.285278 203.228025 708.660915 C 272.672474 708.329621 354.247403 707.590579 384.49715 707.029927 C 414.746897 706.456532 467.626615 705.564585 502.004803 705.042159 C 651.495129 702.761323 754.948245 699.89435 761.752526 697.83013 C 770.901355 695.052352 765.893709 682.297509 746.156195 658.151228 C 735.949772 645.676711 699.328975 606.112489 693.505835 601.27049 C 691.849362 599.894344 685.325406 593.739909 679.005324 587.585474 C 662.937535 571.938175 653.890644 566.166003 639.504812 562.356115 C 633.694414 560.814321 629.260163 560.533994 613.561895 560.699642 C 582.929885 561.018194 574.813167 558.240416 563.243339 543.459579 C 553.291758 530.742963 540.829984 499.499332 536.943643 477.493724 C 535.937017 471.836231 533.22295 457.730726 529.999198 441.497289 C 528.801441 435.444791 527.603683 429.150194 527.348841 427.493721 C 527.081257 425.84999 526.163826 421.568644 525.322847 418.000856 C 524.469127 414.420325 523.424274 409.247032 523.003785 406.494739 C 522.290227 401.907582 516.670961 374.015124 511.816221 351.00289 C 510.7204 345.778629 509.44619 339.433062 508.987474 336.897384 C 508.541501 334.361706 507.496648 329.417771 506.668412 325.900951 C 505.852917 322.384132 504.425802 315.669045 503.508371 311.005436 C 502.578198 306.329085 500.972693 298.671082 499.940583 293.994731 C 498.89573 289.331122 497.328452 282.119093 496.449247 278.003395 C 494.76729 270.192487 492.116933 258.176686 489.033344 244.504412 C 488.039461 240.095645 486.752508 234.247021 486.166372 231.494727 C 485.592977 228.755175 483.949246 221.555889 482.509389 215.503391 C 481.082274 209.450893 479.234669 201.576275 478.406432 197.995744 C 477.565454 194.427956 476.02366 188.120616 474.966065 184.004918 C 473.921213 179.876477 471.869735 171.772501 470.417135 166.000329 C 465.906432 148.033967 465.294811 145.676679 463.561885 139.49676 C 459.127634 123.78575 454.413057 109.871376 450.934463 102.200631 C 445.735686 90.73274 441.862088 88.502873 436.306532 93.752618 M 446.742312 101.996757 C 450.017032 108.546197 456.056788 126.741917 461.994607 147.995741 C 465.16739 159.323469 468.20001 171.33927 474.112344 195.995234 C 481.044047 224.919803 482.917136 233.074748 487.478808 253.997277 C 489.453834 263.069653 491.925801 274.320928 492.970654 278.997279 C 494.028248 283.67363 495.085842 288.630307 495.340684 289.993712 C 495.595526 291.369858 496.984415 297.893814 498.411531 304.494222 C 501.469635 318.599728 507.878911 349.55029 509.076669 355.997793 C 509.535385 358.469761 511.077179 365.898406 512.504294 372.498814 C 513.931409 379.099222 515.485946 386.744482 515.970145 389.496776 C 516.441603 392.24907 517.524682 397.651721 518.352918 401.499835 C 519.193897 405.34795 523.067496 424.919816 526.953836 445.001367 C 536.777996 495.651217 540.5624 509.13236 550.564949 529.264879 C 559.522646 547.320436 567.945174 556.482006 579.846296 561.145615 C 584.917652 563.133383 588.052209 563.426451 610.503791 564.063556 C 624.252517 564.458561 637.300429 565.248572 639.504812 565.834708 C 641.696453 566.420845 647.277493 568.803618 651.902876 571.148164 C 662.096557 576.321457 671.767811 584.884149 702.055785 615.618096 C 734.84121 648.874979 752.081272 669.236856 759.637338 683.609945 C 764.657725 693.128295 764.109815 694.249599 753.979845 695.167031 C 736.497683 696.747051 580.623565 700.391292 415.498681 703.079875 C 313.689296 704.749091 72.78714 705.449906 54.119962 704.150212 C 45.659207 703.564075 38.510889 702.850517 38.230563 702.570191 C 37.962978 702.289865 38.307015 700.658876 39.020573 698.951435 C 42.167872 691.344401 66.084795 675.531454 96.500189 660.941748 C 111.217316 653.882624 147.21375 638.005967 148.500702 638.005967 C 148.781029 638.005967 150.934444 637.152246 153.266248 636.107394 C 155.598052 635.062542 161.548613 632.6288 166.505291 630.692001 C 171.449226 628.767944 179.094486 625.760808 183.503253 624.01514 C 207.38195 614.560502 248.513451 600.009022 251.291229 600.034507 C 254.234654 600.059991 261.892657 601.079359 280.496124 603.908105 C 294.053719 605.959584 314.632212 608.877525 326.495107 610.419319 C 333.095516 611.285782 345.25148 612.865802 353.495619 613.936139 C 367.550156 615.771001 384.994092 617.835221 417.002249 621.453978 C 424.430894 622.294957 437.695421 623.22513 446.500212 623.543683 C 459.917644 624.01514 462.810101 623.862235 464.390122 622.588025 C 466.135789 621.186394 466.161274 620.906068 464.695932 618.663458 C 462.708164 615.618096 444.958418 606.902499 417.996133 595.740419 C 394.499699 586.005454 389.492054 584.017686 340.498676 565.044698 C 334.994089 562.916767 319.47421 557.119111 306.00581 552.162434 C 292.524667 547.205757 280.71274 542.847959 279.74434 542.465696 C 278.788682 542.096175 277.998672 541.318906 277.998672 540.73277 C 277.998672 540.159375 281.413555 530.195053 285.592964 518.599741 C 299.774922 479.162939 316.174006 430.70473 342.983386 349.00238 C 380.266773 235.39381 394.372278 194.14763 408.668915 157.017148 C 423.551689 118.370357 436.561374 94.224076 441.976766 95.21796 C 442.817745 95.370865 444.958418 98.428969 446.742312 101.996757 " stroke="#ffffff" stroke-width="20" stroke-opacity="1" stroke-miterlimit="4"/></g></svg>